<svg xmlns="http://www.w3.org/2000/svg" width="200" height="200" version="1"><defs><linearGradient id="a" x1="-344" x2="-396" y1="275" y2="425" gradientTransform="matrix(-.50335 0 0 .50335 -148 -159)" gradientUnits="userSpaceOnUse"><stop offset="0" stop-color="#FFF"/><stop offset="1" stop-color="#FFF" stop-opacity="0"/></linearGradient></defs><rect width="200" height="200" x="-200" fill="#069" rx="30" ry="30" transform="scale(-1 1)"/><path fill="url(#a)" d="M147 9H53C28 9 8 29 8 54v92c1 20 4 7 10-15 6-25 29-47 56-63 21-13 44-21 87-22 24 0 22-31-14-37z"/><path fill="#FFF" d="M64 168V77H34v91h30zM49 65c10 0 17-7 17-16s-7-16-17-16-17 7-17 16 7 16 17 16zm32 103h30v-51l1-7c2-6 7-11 15-11 11 0 16 8 16 20v49h30v-52c0-28-15-41-35-41-16 0-23 9-27 15V77H81v91z"/></svg>